<?xml version="1.0" encoding="UTF-8"?>
<!DOCTYPE svg PUBLIC "-//W3C//DTD SVG 1.1//EN" "http://www.w3.org/Graphics/SVG/1.1/DTD/svg11.dtd">
<!-- Creator: CorelDRAW 2021 (64-Bit) -->
<svg xmlns="http://www.w3.org/2000/svg" xml:space="preserve" width="2480px" height="3508px" version="1.1" style="shape-rendering:geometricPrecision; text-rendering:geometricPrecision; image-rendering:optimizeQuality; fill-rule:evenodd; clip-rule:evenodd"
viewBox="0 0 2480 3507.43"
 xmlns:xlink="http://www.w3.org/1999/xlink"
 xmlns:xodm="http://www.corel.com/coreldraw/odm/2003">
 <defs>
  <style type="text/css">
   <![CDATA[
    .fil0 {fill:white}
   ]]>
  </style>
 </defs>
 <g id="Layer_x0020_1">
  <metadata id="CorelCorpID_0Corel-Layer"/>
  <path class="fil0" d="M1091 1782.67c-9.14,3.02 -17.74,6.3 -25.88,9.96 -3.82,1.72 -8.05,5.78 -5.43,10.05 1.53,2.51 5.24,4.32 9.04,6.1 21.74,5.38 23.78,-8.62 22.27,-26.11zm-34.53 -4.05c10.1,-18.97 24.56,-21.01 31.55,-5.85 -10.52,1.95 -21.04,3.9 -31.55,5.85zm-40.12 61.55l19.18 -27.43 70.66 26.07c23.82,8.78 30.73,-8.55 26.45,-21.01l-14.81 -43.1 27.97 -10.01 -31.46 3.44 -16.97 -43.8c-5.07,-13.1 -19.11,-12.93 -25.91,0.91l-27.86 56.75c-18.41,1.8 -36.02,3.97 -39.07,12.14 -1.81,4.82 10.23,10.05 24.47,15.98l-12.65 30.06zm171.01 -75.44l46.87 0 9.77 0c19.44,0 35.34,15.64 35.34,34.77l0 0c0,19.12 -15.9,34.77 -35.34,34.77l-9.77 0 -46.87 0 -35.34 0 0 -34.77 0 0 0 -49.83c4.35,10.52 12.24,15.06 22.28,15.06l13.06 0zm89.13 5.28c1.84,-4.19 2.85,-8.8 2.85,-13.63l0 0c0,-19.12 -15.9,-34.77 -35.34,-34.77l-9.77 0 -46.87 0 -35.34 0c6.93,20.14 18.91,27.27 35.34,27.27l46.87 0 9.77 0c14.53,0 27.08,8.73 32.49,21.13zm-86.75 20.18l36.95 0 14.83 0c5.3,0 9.64,4.27 9.64,9.49l0 0c0,5.22 -4.34,9.49 -9.64,9.49l-14.83 0 -36.95 0 -9.65 0 0 -9.49 0 0 0 -9.49 9.65 0zm216.16 21.44l30.6 -34.73 0 57.37 -30.6 0 0 -22.64zm-41.03 -15.73c26.83,-37.71 52.88,-71.74 71.63,-71.25l0 33.1 -56.55 73.33 -28 0 -30.11 -40.59 0 43.78 -30.6 0 0 -109.62c11.06,4.77 20.9,10.75 30.6,21.87l43.03 49.38z"/>
 </g>
</svg>
